<svg width="568" height="464" viewBox="0 0 568 464" fill="none" xmlns="http://www.w3.org/2000/svg">
<path d="M64 8L64 421" stroke="#2A2B2A" stroke-width="15" stroke-linecap="round"/>
<path d="M64 421H540.5" stroke="#2A2B2A" stroke-width="15" stroke-linecap="round"/>
<path d="M64 420H540.5" stroke="#2A2B2A" stroke-width="3" stroke-linecap="round"/>
<path d="M69 203L545.5 203" stroke="#2A2B2A" stroke-width="0.5" stroke-linecap="round"/>
<path d="M69 413H545.5" stroke="#2A2B2A" stroke-width="0.5" stroke-linecap="round"/>
<path d="M69 188L545.5 188" stroke="#2A2B2A" stroke-width="0.5" stroke-linecap="round"/>
<path d="M69 398H545.5" stroke="#2A2B2A" stroke-width="0.5" stroke-linecap="round"/>
<path d="M69 173L545.5 173" stroke="#2A2B2A" stroke-width="0.5" stroke-linecap="round"/>
<path d="M69 383H545.5" stroke="#2A2B2A" stroke-width="0.5" stroke-linecap="round"/>
<path d="M69 158L545.5 158" stroke="#2A2B2A" stroke-width="0.5" stroke-linecap="round"/>
<path d="M69 368H545.5" stroke="#2A2B2A" stroke-width="0.5" stroke-linecap="round"/>
<path d="M69 143L545.5 143" stroke="#2A2B2A" stroke-width="0.5" stroke-linecap="round"/>
<path d="M69 353H545.5" stroke="#2A2B2A" stroke-width="0.5" stroke-linecap="round"/>
<path d="M69 128L545.5 128" stroke="#2A2B2A" stroke-width="0.5" stroke-linecap="round"/>
<path d="M69 338H545.5" stroke="#2A2B2A" stroke-width="0.5" stroke-linecap="round"/>
<path d="M69 113L545.5 113" stroke="#2A2B2A" stroke-width="0.5" stroke-linecap="round"/>
<path d="M69 323H545.5" stroke="#2A2B2A" stroke-width="0.5" stroke-linecap="round"/>
<path d="M69 98L545.5 98" stroke="#2A2B2A" stroke-width="0.5" stroke-linecap="round"/>
<path d="M69 308H545.5" stroke="#2A2B2A" stroke-width="0.5" stroke-linecap="round"/>
<path d="M69 83L545.5 83" stroke="#2A2B2A" stroke-width="0.5" stroke-linecap="round"/>
<path d="M69 293H545.5" stroke="#2A2B2A" stroke-width="0.5" stroke-linecap="round"/>
<path d="M69 68L545.5 68" stroke="#2A2B2A" stroke-width="0.5" stroke-linecap="round"/>
<path d="M69 278H545.5" stroke="#2A2B2A" stroke-width="0.5" stroke-linecap="round"/>
<path d="M69 53L545.5 53" stroke="#2A2B2A" stroke-width="0.5" stroke-linecap="round"/>
<path d="M69 263H545.5" stroke="#2A2B2A" stroke-width="0.5" stroke-linecap="round"/>
<path d="M69 38L545.5 38" stroke="#2A2B2A" stroke-width="0.5" stroke-linecap="round"/>
<path d="M69 248L545.5 248" stroke="#2A2B2A" stroke-width="0.5" stroke-linecap="round"/>
<path d="M69 23L545.5 23" stroke="#2A2B2A" stroke-width="0.5" stroke-linecap="round"/>
<path d="M69 233L545.5 233" stroke="#2A2B2A" stroke-width="0.5" stroke-linecap="round"/>
<path d="M69 8L545.5 8" stroke="#2A2B2A" stroke-width="0.5" stroke-linecap="round"/>
<path d="M69 218L545.5 218" stroke="#2A2B2A" stroke-width="0.5" stroke-linecap="round"/>
<path d="M293.852 420L293.852 8.00001" stroke="#2A2B2A" stroke-width="0.5" stroke-linecap="round"/>
<path d="M536 420V8.00001" stroke="#2A2B2A" stroke-width="0.5" stroke-linecap="round"/>
<path d="M276.556 420L276.556 8.00001" stroke="#2A2B2A" stroke-width="0.5" stroke-linecap="round"/>
<path d="M518.704 420V8.00001" stroke="#2A2B2A" stroke-width="0.5" stroke-linecap="round"/>
<path d="M259.259 420L259.259 8.00001" stroke="#2A2B2A" stroke-width="0.5" stroke-linecap="round"/>
<path d="M501.407 420L501.407 8.00001" stroke="#2A2B2A" stroke-width="0.5" stroke-linecap="round"/>
<path d="M241.963 420L241.963 8.00001" stroke="#2A2B2A" stroke-width="0.5" stroke-linecap="round"/>
<path d="M484.111 420L484.111 8.00001" stroke="#2A2B2A" stroke-width="0.5" stroke-linecap="round"/>
<path d="M224.667 420L224.667 8.00001" stroke="#2A2B2A" stroke-width="0.5" stroke-linecap="round"/>
<path d="M466.815 420L466.815 8.00001" stroke="#2A2B2A" stroke-width="0.5" stroke-linecap="round"/>
<path d="M207.37 420L207.37 8.00001" stroke="#2A2B2A" stroke-width="0.5" stroke-linecap="round"/>
<path d="M449.519 420L449.519 8.00001" stroke="#2A2B2A" stroke-width="0.5" stroke-linecap="round"/>
<path d="M190.074 420L190.074 8.00001" stroke="#2A2B2A" stroke-width="0.5" stroke-linecap="round"/>
<path d="M432.222 420L432.222 8.00001" stroke="#2A2B2A" stroke-width="0.5" stroke-linecap="round"/>
<path d="M172.778 420L172.778 8.00001" stroke="#2A2B2A" stroke-width="0.5" stroke-linecap="round"/>
<path d="M414.926 420L414.926 8.00001" stroke="#2A2B2A" stroke-width="0.5" stroke-linecap="round"/>
<path d="M155.481 420L155.481 8.00001" stroke="#2A2B2A" stroke-width="0.5" stroke-linecap="round"/>
<path d="M397.63 420L397.63 8.00001" stroke="#2A2B2A" stroke-width="0.5" stroke-linecap="round"/>
<path d="M138.185 420L138.185 8.00001" stroke="#2A2B2A" stroke-width="0.5" stroke-linecap="round"/>
<path d="M380.333 420L380.333 8.00001" stroke="#2A2B2A" stroke-width="0.5" stroke-linecap="round"/>
<path d="M120.889 420L120.889 8.00001" stroke="#2A2B2A" stroke-width="0.5" stroke-linecap="round"/>
<path d="M363.037 420L363.037 8.00001" stroke="#2A2B2A" stroke-width="0.5" stroke-linecap="round"/>
<path d="M103.593 420L103.593 8.00001" stroke="#2A2B2A" stroke-width="0.5" stroke-linecap="round"/>
<path d="M345.741 420L345.741 8.00001" stroke="#2A2B2A" stroke-width="0.5" stroke-linecap="round"/>
<path d="M86.2964 420L86.2964 8.00001" stroke="#2A2B2A" stroke-width="0.5" stroke-linecap="round"/>
<path d="M328.444 420L328.444 8.00001" stroke="#2A2B2A" stroke-width="0.5" stroke-linecap="round"/>
<path d="M69 420L69 8.00001" stroke="#2A2B2A" stroke-width="0.5" stroke-linecap="round"/>
<path d="M311.148 420L311.148 8.00001" stroke="#2A2B2A" stroke-width="0.5" stroke-linecap="round"/>
<path d="M521.793 439.781V454H518.619V439.781H521.793ZM526.119 439.781V442.252H514.381V439.781H526.119ZM525.221 448.824V448.619C525.221 447.844 525.331 447.132 525.553 446.48C525.774 445.823 526.1 445.253 526.529 444.771C526.959 444.29 527.486 443.915 528.111 443.648C528.736 443.375 529.452 443.238 530.26 443.238C531.08 443.238 531.803 443.375 532.428 443.648C533.059 443.915 533.59 444.29 534.02 444.771C534.449 445.253 534.775 445.823 534.996 446.48C535.217 447.132 535.328 447.844 535.328 448.619V448.824C535.328 449.592 535.217 450.305 534.996 450.963C534.775 451.614 534.449 452.184 534.02 452.672C533.59 453.154 533.062 453.528 532.438 453.795C531.812 454.062 531.093 454.195 530.279 454.195C529.472 454.195 528.753 454.062 528.121 453.795C527.49 453.528 526.959 453.154 526.529 452.672C526.1 452.184 525.774 451.614 525.553 450.963C525.331 450.305 525.221 449.592 525.221 448.824ZM528.277 448.619V448.824C528.277 449.241 528.31 449.632 528.375 449.996C528.447 450.361 528.561 450.68 528.717 450.953C528.873 451.227 529.078 451.441 529.332 451.598C529.592 451.747 529.908 451.822 530.279 451.822C530.65 451.822 530.963 451.747 531.217 451.598C531.471 451.441 531.676 451.227 531.832 450.953C531.988 450.68 532.099 450.361 532.164 449.996C532.236 449.632 532.271 449.241 532.271 448.824V448.619C532.271 448.209 532.236 447.825 532.164 447.467C532.099 447.102 531.988 446.78 531.832 446.5C531.676 446.22 531.467 446.002 531.207 445.846C530.953 445.689 530.637 445.611 530.26 445.611C529.895 445.611 529.586 445.689 529.332 445.846C529.078 446.002 528.873 446.22 528.717 446.5C528.561 446.78 528.447 447.102 528.375 447.467C528.31 447.825 528.277 448.209 528.277 448.619ZM543.082 451.637V439H546.148V454H543.395L543.082 451.637ZM536.5 448.844V448.639C536.5 447.838 536.588 447.109 536.764 446.451C536.946 445.787 537.21 445.217 537.555 444.742C537.906 444.26 538.339 443.889 538.854 443.629C539.368 443.368 539.957 443.238 540.621 443.238C541.233 443.238 541.767 443.375 542.223 443.648C542.678 443.915 543.066 444.293 543.385 444.781C543.71 445.263 543.974 445.833 544.176 446.49C544.378 447.141 544.531 447.848 544.635 448.609V448.961C544.537 449.69 544.384 450.37 544.176 451.002C543.974 451.633 543.71 452.19 543.385 452.672C543.066 453.147 542.675 453.521 542.213 453.795C541.757 454.062 541.22 454.195 540.602 454.195C539.938 454.195 539.348 454.062 538.834 453.795C538.326 453.528 537.9 453.154 537.555 452.672C537.21 452.19 536.946 451.624 536.764 450.973C536.588 450.322 536.5 449.612 536.5 448.844ZM539.547 448.639V448.844C539.547 449.26 539.576 449.648 539.635 450.006C539.7 450.364 539.804 450.68 539.947 450.953C540.09 451.227 540.279 451.441 540.514 451.598C540.748 451.747 541.035 451.822 541.373 451.822C541.829 451.822 542.203 451.718 542.496 451.51C542.789 451.295 543.01 450.999 543.16 450.621C543.31 450.243 543.388 449.804 543.395 449.303V448.277C543.395 447.861 543.352 447.486 543.268 447.154C543.183 446.822 543.056 446.542 542.887 446.314C542.724 446.087 542.519 445.914 542.271 445.797C542.024 445.673 541.731 445.611 541.393 445.611C541.061 445.611 540.777 445.689 540.543 445.846C540.309 445.995 540.117 446.207 539.967 446.48C539.824 446.754 539.716 447.076 539.645 447.447C539.579 447.812 539.547 448.209 539.547 448.639ZM553.775 451.48V446.949C553.775 446.63 553.727 446.357 553.629 446.129C553.531 445.901 553.378 445.722 553.17 445.592C552.962 445.462 552.691 445.396 552.359 445.396C552.079 445.396 551.835 445.445 551.627 445.543C551.425 445.641 551.269 445.781 551.158 445.963C551.054 446.145 551.002 446.37 551.002 446.637H547.955C547.955 446.161 548.062 445.719 548.277 445.309C548.492 444.898 548.798 444.537 549.195 444.225C549.599 443.912 550.081 443.671 550.641 443.502C551.201 443.326 551.829 443.238 552.525 443.238C553.352 443.238 554.088 443.378 554.732 443.658C555.383 443.932 555.898 444.345 556.275 444.898C556.653 445.445 556.842 446.135 556.842 446.969V451.393C556.842 452.031 556.878 452.532 556.949 452.896C557.027 453.255 557.138 453.567 557.281 453.834V454H554.205C554.062 453.694 553.954 453.316 553.883 452.867C553.811 452.411 553.775 451.949 553.775 451.48ZM554.156 447.555L554.176 449.234H552.662C552.324 449.234 552.031 449.277 551.783 449.361C551.542 449.446 551.347 449.563 551.197 449.713C551.048 449.856 550.937 450.025 550.865 450.221C550.8 450.41 550.768 450.618 550.768 450.846C550.768 451.061 550.82 451.256 550.924 451.432C551.028 451.601 551.171 451.734 551.354 451.832C551.536 451.93 551.747 451.979 551.988 451.979C552.385 451.979 552.724 451.9 553.004 451.744C553.29 451.588 553.512 451.399 553.668 451.178C553.824 450.95 553.902 450.738 553.902 450.543L554.635 451.812C554.518 452.073 554.374 452.343 554.205 452.623C554.036 452.896 553.821 453.154 553.561 453.395C553.3 453.629 552.984 453.821 552.613 453.971C552.249 454.12 551.809 454.195 551.295 454.195C550.631 454.195 550.029 454.062 549.488 453.795C548.948 453.521 548.515 453.147 548.189 452.672C547.87 452.197 547.711 451.65 547.711 451.031C547.711 450.478 547.812 449.986 548.014 449.557C548.215 449.127 548.518 448.762 548.922 448.463C549.332 448.163 549.846 447.939 550.465 447.789C551.083 447.633 551.806 447.555 552.633 447.555H554.156ZM561.871 452.779L564.635 443.434H567.916L563.668 455.582C563.577 455.849 563.453 456.135 563.297 456.441C563.147 456.747 562.942 457.04 562.682 457.32C562.428 457.6 562.102 457.828 561.705 458.004C561.308 458.18 560.82 458.268 560.24 458.268C559.947 458.268 559.719 458.251 559.557 458.219C559.4 458.193 559.192 458.147 558.932 458.082L558.922 455.865C559.007 455.865 559.081 455.865 559.146 455.865C559.218 455.872 559.29 455.875 559.361 455.875C559.726 455.875 560.019 455.836 560.24 455.758C560.468 455.68 560.644 455.562 560.768 455.406C560.898 455.257 561.002 455.064 561.08 454.83L561.871 452.779ZM560.943 443.434L563.131 450.953L563.502 454.186L561.441 454.293L557.662 443.434H560.943Z" fill="#2A2B2A"/>
<path d="M50.6445 450.621V453.15C50.6445 454.192 50.5273 455.094 50.293 455.855C50.0651 456.617 49.7331 457.245 49.2969 457.74C48.8672 458.235 48.3529 458.603 47.7539 458.844C47.1615 459.078 46.5039 459.195 45.7812 459.195C45.2018 459.195 44.6615 459.12 44.1602 458.971C43.6589 458.821 43.2064 458.59 42.8027 458.277C42.4056 457.958 42.0638 457.561 41.7773 457.086C41.4909 456.611 41.2695 456.044 41.1133 455.387C40.9635 454.729 40.8887 453.984 40.8887 453.15V450.621C40.8887 449.566 41.0026 448.661 41.2305 447.906C41.4648 447.151 41.8001 446.526 42.2363 446.031C42.6725 445.536 43.1868 445.172 43.7793 444.938C44.3783 444.703 45.0391 444.586 45.7617 444.586C46.3411 444.586 46.8783 444.661 47.373 444.811C47.8743 444.96 48.3268 445.191 48.7305 445.504C49.1341 445.816 49.4759 446.21 49.7559 446.686C50.0423 447.161 50.2604 447.727 50.4102 448.385C50.5664 449.036 50.6445 449.781 50.6445 450.621ZM47.5977 453.531V450.221C47.5977 449.732 47.5684 449.309 47.5098 448.951C47.4577 448.587 47.3796 448.277 47.2754 448.023C47.1777 447.77 47.054 447.564 46.9043 447.408C46.7546 447.252 46.582 447.138 46.3867 447.066C46.1979 446.988 45.9896 446.949 45.7617 446.949C45.4753 446.949 45.2181 447.008 44.9902 447.125C44.7624 447.242 44.5703 447.428 44.4141 447.682C44.2578 447.929 44.1374 448.264 44.0527 448.688C43.9746 449.104 43.9355 449.615 43.9355 450.221V453.531C43.9355 454.02 43.9616 454.446 44.0137 454.811C44.0723 455.175 44.1504 455.488 44.248 455.748C44.3522 456.002 44.4792 456.21 44.6289 456.373C44.7786 456.529 44.9512 456.643 45.1465 456.715C45.3418 456.786 45.5534 456.822 45.7812 456.822C46.0677 456.822 46.3216 456.767 46.543 456.656C46.7643 456.539 46.9531 456.354 47.1094 456.1C47.2721 455.839 47.3926 455.497 47.4707 455.074C47.5553 454.651 47.5977 454.137 47.5977 453.531ZM59.541 444.771V459H56.4844V448.248L53.1836 449.254V446.891L59.2383 444.771H59.541ZM64.2676 457.555C64.2676 457.112 64.4238 456.741 64.7363 456.441C65.0553 456.142 65.4688 455.992 65.9766 455.992C66.4909 455.992 66.901 456.142 67.207 456.441C67.5195 456.741 67.6758 457.112 67.6758 457.555C67.6758 457.991 67.5195 458.359 67.207 458.658C66.901 458.958 66.4909 459.107 65.9766 459.107C65.4688 459.107 65.0553 458.958 64.7363 458.658C64.4238 458.359 64.2676 457.991 64.2676 457.555ZM79.668 450.621V453.15C79.668 454.192 79.5508 455.094 79.3164 455.855C79.0885 456.617 78.7565 457.245 78.3203 457.74C77.8906 458.235 77.3763 458.603 76.7773 458.844C76.1849 459.078 75.5273 459.195 74.8047 459.195C74.2253 459.195 73.6849 459.12 73.1836 458.971C72.6823 458.821 72.2298 458.59 71.8262 458.277C71.429 457.958 71.0872 457.561 70.8008 457.086C70.5143 456.611 70.293 456.044 70.1367 455.387C69.987 454.729 69.9121 453.984 69.9121 453.15V450.621C69.9121 449.566 70.026 448.661 70.2539 447.906C70.4883 447.151 70.8236 446.526 71.2598 446.031C71.696 445.536 72.2103 445.172 72.8027 444.938C73.4017 444.703 74.0625 444.586 74.7852 444.586C75.3646 444.586 75.9017 444.661 76.3965 444.811C76.8978 444.96 77.3503 445.191 77.7539 445.504C78.1576 445.816 78.4993 446.21 78.7793 446.686C79.0658 447.161 79.2839 447.727 79.4336 448.385C79.5898 449.036 79.668 449.781 79.668 450.621ZM76.6211 453.531V450.221C76.6211 449.732 76.5918 449.309 76.5332 448.951C76.4811 448.587 76.403 448.277 76.2988 448.023C76.2012 447.77 76.0775 447.564 75.9277 447.408C75.778 447.252 75.6055 447.138 75.4102 447.066C75.2214 446.988 75.013 446.949 74.7852 446.949C74.4987 446.949 74.2415 447.008 74.0137 447.125C73.7858 447.242 73.5938 447.428 73.4375 447.682C73.2812 447.929 73.1608 448.264 73.0762 448.688C72.998 449.104 72.959 449.615 72.959 450.221V453.531C72.959 454.02 72.985 454.446 73.0371 454.811C73.0957 455.175 73.1738 455.488 73.2715 455.748C73.3757 456.002 73.5026 456.21 73.6523 456.373C73.8021 456.529 73.9746 456.643 74.1699 456.715C74.3652 456.786 74.5768 456.822 74.8047 456.822C75.0911 456.822 75.3451 456.767 75.5664 456.656C75.7878 456.539 75.9766 456.354 76.1328 456.1C76.2956 455.839 76.416 455.497 76.4941 455.074C76.5788 454.651 76.6211 454.137 76.6211 453.531ZM88.5645 444.771V459H85.5078V448.248L82.207 449.254V446.891L88.2617 444.771H88.5645Z" fill="#2A2B2A"/>
<path d="M13.4492 423.539V426H6.27148V423.539H13.4492ZM7.35547 411.781V426H4.17188V411.781H7.35547ZM14.416 420.824V420.619C14.416 419.844 14.5267 419.132 14.748 418.48C14.9694 417.823 15.2949 417.253 15.7246 416.771C16.1543 416.29 16.6816 415.915 17.3066 415.648C17.9316 415.375 18.6478 415.238 19.4551 415.238C20.2754 415.238 20.998 415.375 21.623 415.648C22.2546 415.915 22.7852 416.29 23.2148 416.771C23.6445 417.253 23.9701 417.823 24.1914 418.48C24.4128 419.132 24.5234 419.844 24.5234 420.619V420.824C24.5234 421.592 24.4128 422.305 24.1914 422.963C23.9701 423.614 23.6445 424.184 23.2148 424.672C22.7852 425.154 22.2578 425.528 21.6328 425.795C21.0078 426.062 20.2884 426.195 19.4746 426.195C18.6673 426.195 17.9479 426.062 17.3164 425.795C16.6849 425.528 16.1543 425.154 15.7246 424.672C15.2949 424.184 14.9694 423.614 14.748 422.963C14.5267 422.305 14.416 421.592 14.416 420.824ZM17.4727 420.619V420.824C17.4727 421.241 17.5052 421.632 17.5703 421.996C17.6419 422.361 17.7559 422.68 17.9121 422.953C18.0684 423.227 18.2734 423.441 18.5273 423.598C18.7878 423.747 19.1035 423.822 19.4746 423.822C19.8457 423.822 20.1582 423.747 20.4121 423.598C20.666 423.441 20.8711 423.227 21.0273 422.953C21.1836 422.68 21.2943 422.361 21.3594 421.996C21.431 421.632 21.4668 421.241 21.4668 420.824V420.619C21.4668 420.209 21.431 419.825 21.3594 419.467C21.2943 419.102 21.1836 418.78 21.0273 418.5C20.8711 418.22 20.6628 418.002 20.4023 417.846C20.1484 417.689 19.8327 417.611 19.4551 417.611C19.0905 417.611 18.7812 417.689 18.5273 417.846C18.2734 418.002 18.0684 418.22 17.9121 418.5C17.7559 418.78 17.6419 419.102 17.5703 419.467C17.5052 419.825 17.4727 420.209 17.4727 420.619ZM29.2402 423.061L31.3105 415.434H33.2344L32.5801 418.832L30.5098 426H28.9375L29.2402 423.061ZM28.293 415.434L29.6797 423.031L29.8262 426H27.9512L25.3535 415.434H28.293ZM35.1094 422.885L36.4863 415.434H39.4258L36.8477 426H34.9727L35.1094 422.885ZM33.4688 415.434L35.5586 423.021L35.8613 426H34.2695L32.2188 418.842L31.5938 415.434H33.4688Z" fill="#2A2B2A"/>
<path d="M10.7129 9.50391V11.9648H3.34961V9.50391H10.7129ZM4.35547 3.78125V18H1.17188V3.78125H4.35547ZM12.9102 3.78125V18H9.73633V3.78125H12.9102ZM18.3301 7.43359V18H15.2734V7.43359H18.3301ZM15.0879 4.69922C15.0879 4.25651 15.2441 3.89518 15.5566 3.61523C15.8691 3.32878 16.2793 3.18555 16.7871 3.18555C17.2949 3.18555 17.7051 3.32878 18.0176 3.61523C18.3366 3.89518 18.4961 4.25651 18.4961 4.69922C18.4961 5.13542 18.3366 5.49674 18.0176 5.7832C17.7051 6.06315 17.2949 6.20312 16.7871 6.20312C16.2793 6.20312 15.8691 6.06315 15.5566 5.7832C15.2441 5.49674 15.0879 5.13542 15.0879 4.69922ZM27.1875 7.43359H29.9609V17.6191C29.9609 18.5892 29.7396 19.4128 29.2969 20.0898C28.8607 20.7669 28.252 21.2812 27.4707 21.6328C26.6895 21.9844 25.7747 22.1602 24.7266 22.1602C24.2708 22.1602 23.7956 22.0983 23.3008 21.9746C22.806 21.8574 22.3405 21.6784 21.9043 21.4375C21.4681 21.2031 21.1035 20.9036 20.8105 20.5391L22.1094 18.7422C22.4089 19.0807 22.7669 19.3542 23.1836 19.5625C23.6003 19.7773 24.0755 19.8848 24.6094 19.8848C25.0977 19.8848 25.5111 19.7969 25.8496 19.6211C26.1882 19.4453 26.4453 19.1882 26.6211 18.8496C26.8034 18.5111 26.8945 18.1009 26.8945 17.6191V9.9043L27.1875 7.43359ZM20.127 12.8438V12.6387C20.127 11.8379 20.2246 11.1087 20.4199 10.4512C20.6152 9.78711 20.8984 9.21745 21.2695 8.74219C21.6471 8.26042 22.0996 7.88932 22.627 7.62891C23.1608 7.36849 23.7598 7.23828 24.4238 7.23828C25.14 7.23828 25.7324 7.375 26.2012 7.64844C26.6699 7.91536 27.0508 8.29297 27.3438 8.78125C27.6367 9.26302 27.8678 9.83268 28.0371 10.4902C28.2064 11.1413 28.3431 11.8477 28.4473 12.6094V12.9609C28.3431 13.6901 28.1934 14.3704 27.998 15.002C27.8027 15.6335 27.5488 16.1901 27.2363 16.6719C26.9238 17.1471 26.5332 17.5215 26.0645 17.7949C25.6022 18.0618 25.0488 18.1953 24.4043 18.1953C23.7467 18.1953 23.1543 18.0618 22.627 17.7949C22.0996 17.528 21.6471 17.1536 21.2695 16.6719C20.8984 16.1901 20.6152 15.6237 20.4199 14.9727C20.2246 14.3216 20.127 13.612 20.127 12.8438ZM23.1738 12.6387V12.8438C23.1738 13.2604 23.2129 13.6478 23.291 14.0059C23.3757 14.3639 23.4993 14.6797 23.6621 14.9531C23.8314 15.2266 24.0397 15.4414 24.2871 15.5977C24.541 15.7474 24.8372 15.8223 25.1758 15.8223C25.6706 15.8223 26.071 15.7181 26.377 15.5098C26.6895 15.2949 26.9173 14.9987 27.0605 14.6211C27.2103 14.2435 27.2884 13.804 27.2949 13.3027V12.2773C27.2949 11.8607 27.2526 11.4863 27.168 11.1543C27.0833 10.8223 26.9564 10.5423 26.7871 10.3145C26.6243 10.0866 26.4095 9.91406 26.1426 9.79688C25.8822 9.67318 25.5664 9.61133 25.1953 9.61133C24.8633 9.61133 24.5703 9.68945 24.3164 9.8457C24.0625 9.99544 23.8509 10.207 23.6816 10.4805C23.5124 10.7539 23.3854 11.0762 23.3008 11.4473C23.2161 11.8118 23.1738 12.209 23.1738 12.6387ZM34.9707 3V18H31.9238V3H34.9707ZM34.5703 12.3457L33.8086 12.3652C33.8086 11.623 33.8997 10.9427 34.082 10.3242C34.2708 9.69922 34.5378 9.1556 34.8828 8.69336C35.2279 8.23112 35.6413 7.87305 36.123 7.61914C36.6113 7.36523 37.1484 7.23828 37.7344 7.23828C38.2552 7.23828 38.7305 7.31315 39.1602 7.46289C39.5898 7.61263 39.9609 7.85026 40.2734 8.17578C40.5859 8.5013 40.8268 8.92773 40.9961 9.45508C41.1654 9.98242 41.25 10.6237 41.25 11.3789V18H38.1836V11.3594C38.1836 10.9102 38.1185 10.5586 37.9883 10.3047C37.8646 10.0508 37.6823 9.87174 37.4414 9.76758C37.207 9.66341 36.9206 9.61133 36.582 9.61133C36.1849 9.61133 35.8561 9.68294 35.5957 9.82617C35.3353 9.96289 35.1302 10.1549 34.9805 10.4023C34.8307 10.6497 34.7233 10.9395 34.6582 11.2715C34.5996 11.6035 34.5703 11.9616 34.5703 12.3457Z" fill="#2A2B2A"/>
<path d="M257.918 198.562V227H251.082L241.023 209.305V227H234.168V198.562H241.023L251.082 216.258V198.562H257.918ZM261.121 216.648V216.238C261.121 214.689 261.342 213.263 261.785 211.961C262.228 210.646 262.879 209.507 263.738 208.543C264.598 207.579 265.659 206.831 266.922 206.297C268.185 205.75 269.643 205.477 271.297 205.477C272.964 205.477 274.428 205.75 275.691 206.297C276.967 206.831 278.035 207.579 278.895 208.543C279.754 209.507 280.405 210.646 280.848 211.961C281.29 213.263 281.512 214.689 281.512 216.238V216.648C281.512 218.185 281.29 219.611 280.848 220.926C280.405 222.228 279.754 223.367 278.895 224.344C278.035 225.307 276.974 226.056 275.711 226.59C274.448 227.124 272.99 227.391 271.336 227.391C269.682 227.391 268.217 227.124 266.941 226.59C265.665 226.056 264.598 225.307 263.738 224.344C262.879 223.367 262.228 222.228 261.785 220.926C261.342 219.611 261.121 218.185 261.121 216.648ZM267.703 216.238V216.648C267.703 217.443 267.762 218.185 267.879 218.875C267.996 219.565 268.191 220.171 268.465 220.691C268.738 221.199 269.109 221.596 269.578 221.883C270.047 222.169 270.633 222.312 271.336 222.312C272.026 222.312 272.599 222.169 273.055 221.883C273.523 221.596 273.895 221.199 274.168 220.691C274.441 220.171 274.637 219.565 274.754 218.875C274.871 218.185 274.93 217.443 274.93 216.648V216.238C274.93 215.47 274.871 214.747 274.754 214.07C274.637 213.38 274.441 212.775 274.168 212.254C273.895 211.72 273.523 211.303 273.055 211.004C272.586 210.704 272 210.555 271.297 210.555C270.607 210.555 270.027 210.704 269.559 211.004C269.103 211.303 268.738 211.72 268.465 212.254C268.191 212.775 267.996 213.38 267.879 214.07C267.762 214.747 267.703 215.47 267.703 216.238ZM306.551 222.156V197H313.172V227H307.234L306.551 222.156ZM293.582 216.688V216.277C293.582 214.676 293.758 213.217 294.109 211.902C294.461 210.574 294.982 209.435 295.672 208.484C296.362 207.521 297.221 206.779 298.25 206.258C299.279 205.737 300.464 205.477 301.805 205.477C303.003 205.477 304.051 205.757 304.949 206.316C305.848 206.863 306.616 207.632 307.254 208.621C307.892 209.611 308.413 210.77 308.816 212.098C309.22 213.413 309.526 214.832 309.734 216.355V216.844C309.526 218.276 309.22 219.63 308.816 220.906C308.413 222.169 307.892 223.289 307.254 224.266C306.616 225.242 305.841 226.01 304.93 226.57C304.031 227.117 302.977 227.391 301.766 227.391C300.424 227.391 299.24 227.124 298.211 226.59C297.195 226.056 296.342 225.307 295.652 224.344C294.975 223.38 294.461 222.247 294.109 220.945C293.758 219.643 293.582 218.224 293.582 216.688ZM300.164 216.277V216.688C300.164 217.482 300.216 218.217 300.32 218.895C300.424 219.572 300.6 220.171 300.848 220.691C301.108 221.199 301.447 221.596 301.863 221.883C302.293 222.169 302.82 222.312 303.445 222.312C304.292 222.312 304.988 222.111 305.535 221.707C306.095 221.303 306.505 220.73 306.766 219.988C307.039 219.246 307.156 218.374 307.117 217.371V215.828C307.143 214.969 307.085 214.214 306.941 213.562C306.798 212.898 306.57 212.345 306.258 211.902C305.958 211.46 305.574 211.128 305.105 210.906C304.65 210.672 304.109 210.555 303.484 210.555C302.872 210.555 302.352 210.698 301.922 210.984C301.505 211.271 301.167 211.674 300.906 212.195C300.646 212.703 300.457 213.309 300.34 214.012C300.223 214.702 300.164 215.457 300.164 216.277ZM327.879 221.688V212.977C327.879 212.378 327.794 211.863 327.625 211.434C327.456 211.004 327.189 210.672 326.824 210.438C326.46 210.19 325.971 210.066 325.359 210.066C324.865 210.066 324.441 210.151 324.09 210.32C323.738 210.49 323.471 210.743 323.289 211.082C323.107 211.421 323.016 211.85 323.016 212.371H316.434C316.434 211.395 316.648 210.49 317.078 209.656C317.521 208.81 318.146 208.074 318.953 207.449C319.773 206.824 320.75 206.342 321.883 206.004C323.029 205.652 324.305 205.477 325.711 205.477C327.391 205.477 328.888 205.757 330.203 206.316C331.531 206.876 332.579 207.716 333.348 208.836C334.116 209.943 334.5 211.336 334.5 213.016V221.668C334.5 223.048 334.578 224.096 334.734 224.812C334.891 225.516 335.112 226.134 335.398 226.668V227H328.797C328.484 226.349 328.25 225.555 328.094 224.617C327.951 223.667 327.879 222.69 327.879 221.688ZM328.68 214.09L328.719 217.605H325.809C325.197 217.605 324.676 217.69 324.246 217.859C323.829 218.029 323.491 218.263 323.23 218.562C322.983 218.849 322.801 219.174 322.684 219.539C322.579 219.904 322.527 220.288 322.527 220.691C322.527 221.082 322.618 221.434 322.801 221.746C322.996 222.046 323.257 222.28 323.582 222.449C323.908 222.618 324.272 222.703 324.676 222.703C325.405 222.703 326.023 222.566 326.531 222.293C327.052 222.007 327.449 221.661 327.723 221.258C327.996 220.854 328.133 220.477 328.133 220.125L329.578 222.82C329.318 223.341 329.018 223.868 328.68 224.402C328.354 224.936 327.944 225.431 327.449 225.887C326.967 226.329 326.375 226.694 325.672 226.98C324.969 227.254 324.116 227.391 323.113 227.391C321.811 227.391 320.613 227.124 319.52 226.59C318.439 226.056 317.573 225.314 316.922 224.363C316.271 223.4 315.945 222.293 315.945 221.043C315.945 219.949 316.141 218.973 316.531 218.113C316.935 217.254 317.54 216.525 318.348 215.926C319.155 215.327 320.184 214.871 321.434 214.559C322.684 214.246 324.155 214.09 325.848 214.09H328.68ZM349.285 205.867V210.438H336.551V205.867H349.285ZM339.227 200.613H345.809V220.105C345.809 220.665 345.874 221.102 346.004 221.414C346.134 221.714 346.355 221.928 346.668 222.059C346.993 222.176 347.423 222.234 347.957 222.234C348.335 222.234 348.647 222.228 348.895 222.215C349.142 222.189 349.376 222.156 349.598 222.117V226.824C349.038 227.007 348.452 227.143 347.84 227.234C347.228 227.339 346.577 227.391 345.887 227.391C344.48 227.391 343.276 227.169 342.273 226.727C341.284 226.284 340.529 225.587 340.008 224.637C339.487 223.686 339.227 222.449 339.227 220.926V200.613ZM362.879 221.688V212.977C362.879 212.378 362.794 211.863 362.625 211.434C362.456 211.004 362.189 210.672 361.824 210.438C361.46 210.19 360.971 210.066 360.359 210.066C359.865 210.066 359.441 210.151 359.09 210.32C358.738 210.49 358.471 210.743 358.289 211.082C358.107 211.421 358.016 211.85 358.016 212.371H351.434C351.434 211.395 351.648 210.49 352.078 209.656C352.521 208.81 353.146 208.074 353.953 207.449C354.773 206.824 355.75 206.342 356.883 206.004C358.029 205.652 359.305 205.477 360.711 205.477C362.391 205.477 363.888 205.757 365.203 206.316C366.531 206.876 367.579 207.716 368.348 208.836C369.116 209.943 369.5 211.336 369.5 213.016V221.668C369.5 223.048 369.578 224.096 369.734 224.812C369.891 225.516 370.112 226.134 370.398 226.668V227H363.797C363.484 226.349 363.25 225.555 363.094 224.617C362.951 223.667 362.879 222.69 362.879 221.688ZM363.68 214.09L363.719 217.605H360.809C360.197 217.605 359.676 217.69 359.246 217.859C358.829 218.029 358.491 218.263 358.23 218.562C357.983 218.849 357.801 219.174 357.684 219.539C357.579 219.904 357.527 220.288 357.527 220.691C357.527 221.082 357.618 221.434 357.801 221.746C357.996 222.046 358.257 222.28 358.582 222.449C358.908 222.618 359.272 222.703 359.676 222.703C360.405 222.703 361.023 222.566 361.531 222.293C362.052 222.007 362.449 221.661 362.723 221.258C362.996 220.854 363.133 220.477 363.133 220.125L364.578 222.82C364.318 223.341 364.018 223.868 363.68 224.402C363.354 224.936 362.944 225.431 362.449 225.887C361.967 226.329 361.375 226.694 360.672 226.98C359.969 227.254 359.116 227.391 358.113 227.391C356.811 227.391 355.613 227.124 354.52 226.59C353.439 226.056 352.573 225.314 351.922 224.363C351.271 223.4 350.945 222.293 350.945 221.043C350.945 219.949 351.141 218.973 351.531 218.113C351.935 217.254 352.54 216.525 353.348 215.926C354.155 215.327 355.184 214.871 356.434 214.559C357.684 214.246 359.155 214.09 360.848 214.09H363.68Z" fill="#2A2B2A"/>
</svg>
