<svg width="452" height="452" viewBox="0 0 452 452" fill="none" xmlns="http://www.w3.org/2000/svg">
<rect x="8" y="8" width="436" height="436" rx="37" stroke="#2A2B2A" stroke-width="15"/>
<path d="M178.57 221.063L132.614 281.196C132.363 281.525 132.597 282 133.011 282H319.162C319.541 282 319.782 281.596 319.602 281.263L262.411 175.261C262.228 174.923 261.748 174.909 261.545 175.236L207.414 262.83C207.222 263.141 206.77 263.147 206.57 262.84L179.386 221.093C179.198 220.804 178.78 220.788 178.57 221.063Z" stroke="#2A2B2A" stroke-width="15"/>
<path d="M178.581 221.144L139.503 281.227C139.286 281.56 139.525 282 139.922 282H319.162C319.541 282 319.782 281.596 319.602 281.263L262.411 175.261C262.228 174.923 261.748 174.909 261.545 175.236L207.414 262.83C207.222 263.141 206.77 263.147 206.57 262.84L179.419 221.144C179.222 220.841 178.778 220.841 178.581 221.144Z" fill="#2A2B2A" stroke="#2A2B2A" stroke-width="15"/>
<circle cx="179.5" cy="195.5" r="9.5" fill="#2A2B2A"/>
</svg>
